<svg width="44" height="44" fill="none" xmlns="http://www.w3.org/2000/svg">
  <circle cx="22" cy="22" r="21.5" stroke="#542C85"/>
  <path d="M37.5 13.8c.4.7.5 1.6.1 2.8-.3 1.1-1 2.4-2 3.8a34.2 34.2 0 0 1-9.9 8c-4.2 2.5-8.5 4-12 4.4-1.6.3-3 .2-4.2 0-1.2-.4-2-.9-2.4-1.6-.4-.8-.5-1.7-.1-2.8.3-1.2 1-2.5 2-3.8 2.2-2.8 5.6-5.7 9.9-8.1 4.2-2.5 8.5-4 11.9-4.4 1.7-.2 3.2-.2 4.3.1 1.2.3 2 .8 2.4 1.6z" stroke="#8954A8" stroke-linecap="round" stroke-linejoin="round"/>
  <path d="M7 13.8c.4-.7 1.2-1.2 2.3-1.5 1.2-.3 2.6-.3 4.3-.1 3.4.5 7.7 2 12 4.4 4.2 2.5 7.6 5.4 9.7 8.1 1.1 1.4 1.8 2.7 2.1 3.8.4 1.2.3 2.1-.1 2.8-.5.8-1.2 1.3-2.4 1.6-1.1.3-2.6.3-4.3 0-3.4-.4-7.7-1.9-12-4.3A34.2 34.2 0 0 1 9 20.5c-1-1.4-1.8-2.7-2.1-3.8-.3-1.2-.3-2.1.2-2.9z" stroke="#B17ACC" stroke-linecap="round" stroke-linejoin="round"/>
  <path d="M29.2 22c0 5-.8 9.4-2.1 12.5-.7 1.6-1.5 2.9-2.3 3.7-.8.9-1.7 1.3-2.5 1.3-.9 0-1.7-.4-2.5-1.3-.9-.8-1.6-2-2.3-3.7A34.2 34.2 0 0 1 15.4 22c0-5 .8-9.4 2.1-12.5.7-1.6 1.4-2.9 2.3-3.7.8-.9 1.6-1.3 2.5-1.3.8 0 1.7.4 2.5 1.3.8.8 1.6 2 2.3 3.7 1.3 3.1 2 7.6 2 12.5z" stroke="#8954A8" stroke-linecap="round" stroke-linejoin="round"/>
  <circle cx="22" cy="22" r="4" fill="#639"/>
  <circle cx="22" cy="14" r="2" fill="#FEC21E"/>
  <circle cx="22" cy="30" r="2" fill="#37B635"/>
  <circle cx="10.5" cy="22" r="2" transform="rotate(-90 10.5 22)" fill="#2DE3DA"/>
  <circle cx="33.5" cy="22" r="2" transform="rotate(-90 33.5 22)" fill="#F67300"/>
</svg>