<svg width="37" height="37" fill="none" xmlns="http://www.w3.org/2000/svg">
  <path d="M5.8 5.6c.6-.6 1.5-1 2.6-1 1.2.1 2.7.5 4.2 1.1 3.2 1.3 7 3.9 10.4 7.4 3.5 3.5 6 7.2 7.4 10.4.6 1.5 1 3 1 4.2 0 1.1-.3 2-.9 2.6-.6.6-1.5 1-2.7 1-1.1-.1-2.6-.4-4.2-1.1a34.2 34.2 0 0 1-10.3-7.4c-3.5-3.5-6-7.2-7.4-10.3-.7-1.6-1-3-1-4.2 0-1.2.3-2.1.9-2.7z" stroke="#90CDF9" stroke-linecap="round" stroke-linejoin="round"/>
  <path d="M30.3 5.7c.6.6 1 1.5 1 2.7-.1 1.2-.4 2.6-1.1 4.2A34.2 34.2 0 0 1 22.8 23c-3.5 3.4-7.2 6-10.3 7.3-1.6.7-3 1-4.2 1-1.2 0-2.1-.2-2.7-.8-.6-.6-1-1.5-1-2.7.1-1.2.5-2.6 1.1-4.2 1.3-3.2 3.9-6.9 7.4-10.4 3.5-3.5 7.2-6 10.4-7.3 1.5-.7 3-1 4.2-1 1.1 0 2 .2 2.6.8z" stroke="#90CDF9" stroke-linecap="round" stroke-linejoin="round"/>
  <circle cx="18" cy="18" r="4" fill="#047BD3"/>
  <circle cx="18" cy="9" r="2" fill="#159BF3"/>
  <circle cx="18" cy="28" r="2" fill="#63B8F6"/>
</svg>
